<mxfile host="app.diagrams.net" agent="Mozilla/5.0 (Windows NT 10.0; Win64; x64) AppleWebKit/537.36 (KHTML, like Gecko) Chrome/133.0.0.0 Safari/537.36" version="26.0.15">
  <diagram name="Página-1" id="yite4-9YdsqUEc2tVkQl">
    <mxGraphModel dx="1313" dy="653" grid="1" gridSize="10" guides="1" tooltips="1" connect="1" arrows="1" fold="1" page="1" pageScale="1" pageWidth="827" pageHeight="1169" math="0" shadow="0">
      <root>
        <mxCell id="0" />
        <mxCell id="1" parent="0" />
        <mxCell id="cifpsuVYbJhnXqXT2xYJ-6" value="" style="edgeStyle=orthogonalEdgeStyle;rounded=0;orthogonalLoop=1;jettySize=auto;html=1;" edge="1" parent="1" target="cifpsuVYbJhnXqXT2xYJ-5">
          <mxGeometry relative="1" as="geometry">
            <mxPoint x="140" y="100" as="sourcePoint" />
          </mxGeometry>
        </mxCell>
        <mxCell id="cifpsuVYbJhnXqXT2xYJ-8" value="" style="edgeStyle=orthogonalEdgeStyle;rounded=0;orthogonalLoop=1;jettySize=auto;html=1;" edge="1" parent="1" source="cifpsuVYbJhnXqXT2xYJ-5" target="cifpsuVYbJhnXqXT2xYJ-7">
          <mxGeometry relative="1" as="geometry" />
        </mxCell>
        <mxCell id="cifpsuVYbJhnXqXT2xYJ-5" value="Receber o Pedido" style="rounded=0;whiteSpace=wrap;html=1;" vertex="1" parent="1">
          <mxGeometry x="80" y="180" width="120" height="60" as="geometry" />
        </mxCell>
        <mxCell id="cifpsuVYbJhnXqXT2xYJ-10" value="" style="edgeStyle=orthogonalEdgeStyle;rounded=0;orthogonalLoop=1;jettySize=auto;html=1;" edge="1" parent="1" source="cifpsuVYbJhnXqXT2xYJ-7" target="cifpsuVYbJhnXqXT2xYJ-9">
          <mxGeometry relative="1" as="geometry" />
        </mxCell>
        <mxCell id="cifpsuVYbJhnXqXT2xYJ-24" value="Sim" style="edgeLabel;html=1;align=center;verticalAlign=middle;resizable=0;points=[];" vertex="1" connectable="0" parent="cifpsuVYbJhnXqXT2xYJ-10">
          <mxGeometry relative="1" as="geometry">
            <mxPoint as="offset" />
          </mxGeometry>
        </mxCell>
        <mxCell id="cifpsuVYbJhnXqXT2xYJ-25" style="edgeStyle=orthogonalEdgeStyle;rounded=0;orthogonalLoop=1;jettySize=auto;html=1;entryX=0;entryY=0.5;entryDx=0;entryDy=0;" edge="1" parent="1" source="cifpsuVYbJhnXqXT2xYJ-7" target="cifpsuVYbJhnXqXT2xYJ-19">
          <mxGeometry relative="1" as="geometry">
            <Array as="points">
              <mxPoint x="70" y="365" />
              <mxPoint x="70" y="260" />
              <mxPoint x="60" y="260" />
              <mxPoint x="60" y="70" />
            </Array>
          </mxGeometry>
        </mxCell>
        <mxCell id="cifpsuVYbJhnXqXT2xYJ-26" value="Não" style="edgeLabel;html=1;align=center;verticalAlign=middle;resizable=0;points=[];" vertex="1" connectable="0" parent="cifpsuVYbJhnXqXT2xYJ-25">
          <mxGeometry relative="1" as="geometry">
            <mxPoint as="offset" />
          </mxGeometry>
        </mxCell>
        <mxCell id="cifpsuVYbJhnXqXT2xYJ-7" value="Verificar&lt;div&gt;o&amp;nbsp;&lt;/div&gt;&lt;div&gt;estoque&lt;/div&gt;" style="rhombus;whiteSpace=wrap;html=1;rounded=0;" vertex="1" parent="1">
          <mxGeometry x="85" y="310" width="110" height="110" as="geometry" />
        </mxCell>
        <mxCell id="cifpsuVYbJhnXqXT2xYJ-16" value="" style="edgeStyle=orthogonalEdgeStyle;rounded=0;orthogonalLoop=1;jettySize=auto;html=1;" edge="1" parent="1" source="cifpsuVYbJhnXqXT2xYJ-9" target="cifpsuVYbJhnXqXT2xYJ-15">
          <mxGeometry relative="1" as="geometry" />
        </mxCell>
        <mxCell id="cifpsuVYbJhnXqXT2xYJ-9" value="Preparar a Pizza" style="whiteSpace=wrap;html=1;rounded=0;" vertex="1" parent="1">
          <mxGeometry x="80" y="525" width="120" height="60" as="geometry" />
        </mxCell>
        <mxCell id="cifpsuVYbJhnXqXT2xYJ-18" value="" style="edgeStyle=orthogonalEdgeStyle;rounded=0;orthogonalLoop=1;jettySize=auto;html=1;" edge="1" parent="1" source="cifpsuVYbJhnXqXT2xYJ-15" target="cifpsuVYbJhnXqXT2xYJ-17">
          <mxGeometry relative="1" as="geometry" />
        </mxCell>
        <mxCell id="cifpsuVYbJhnXqXT2xYJ-15" value="Assar a Pizza" style="whiteSpace=wrap;html=1;rounded=0;" vertex="1" parent="1">
          <mxGeometry x="280" y="525" width="120" height="60" as="geometry" />
        </mxCell>
        <mxCell id="cifpsuVYbJhnXqXT2xYJ-28" value="Sim" style="edgeStyle=orthogonalEdgeStyle;rounded=0;orthogonalLoop=1;jettySize=auto;html=1;" edge="1" parent="1" source="cifpsuVYbJhnXqXT2xYJ-17" target="cifpsuVYbJhnXqXT2xYJ-27">
          <mxGeometry relative="1" as="geometry" />
        </mxCell>
        <mxCell id="cifpsuVYbJhnXqXT2xYJ-36" value="SIm" style="edgeLabel;html=1;align=center;verticalAlign=middle;resizable=0;points=[];" vertex="1" connectable="0" parent="cifpsuVYbJhnXqXT2xYJ-28">
          <mxGeometry x="-0.0613" y="1" relative="1" as="geometry">
            <mxPoint as="offset" />
          </mxGeometry>
        </mxCell>
        <mxCell id="cifpsuVYbJhnXqXT2xYJ-32" value="" style="edgeStyle=orthogonalEdgeStyle;rounded=0;orthogonalLoop=1;jettySize=auto;html=1;" edge="1" parent="1" source="cifpsuVYbJhnXqXT2xYJ-17" target="cifpsuVYbJhnXqXT2xYJ-31">
          <mxGeometry relative="1" as="geometry" />
        </mxCell>
        <mxCell id="cifpsuVYbJhnXqXT2xYJ-33" value="Não" style="edgeLabel;html=1;align=center;verticalAlign=middle;resizable=0;points=[];" vertex="1" connectable="0" parent="cifpsuVYbJhnXqXT2xYJ-32">
          <mxGeometry relative="1" as="geometry">
            <mxPoint as="offset" />
          </mxGeometry>
        </mxCell>
        <mxCell id="cifpsuVYbJhnXqXT2xYJ-17" value="Verificar o&amp;nbsp;&lt;div&gt;Pagamento&lt;/div&gt;" style="rhombus;whiteSpace=wrap;html=1;rounded=0;" vertex="1" parent="1">
          <mxGeometry x="285" y="660" width="110" height="95" as="geometry" />
        </mxCell>
        <mxCell id="cifpsuVYbJhnXqXT2xYJ-19" value="Inicio" style="rounded=1;whiteSpace=wrap;html=1;" vertex="1" parent="1">
          <mxGeometry x="80" y="40" width="120" height="60" as="geometry" />
        </mxCell>
        <mxCell id="cifpsuVYbJhnXqXT2xYJ-38" value="" style="edgeStyle=orthogonalEdgeStyle;rounded=0;orthogonalLoop=1;jettySize=auto;html=1;" edge="1" parent="1" source="cifpsuVYbJhnXqXT2xYJ-27" target="cifpsuVYbJhnXqXT2xYJ-37">
          <mxGeometry relative="1" as="geometry" />
        </mxCell>
        <mxCell id="cifpsuVYbJhnXqXT2xYJ-27" value="Pizza Liberada" style="whiteSpace=wrap;html=1;rounded=0;" vertex="1" parent="1">
          <mxGeometry x="470" y="677.5" width="120" height="60" as="geometry" />
        </mxCell>
        <mxCell id="cifpsuVYbJhnXqXT2xYJ-34" style="edgeStyle=orthogonalEdgeStyle;rounded=0;orthogonalLoop=1;jettySize=auto;html=1;entryX=0;entryY=0.5;entryDx=0;entryDy=0;" edge="1" parent="1" source="cifpsuVYbJhnXqXT2xYJ-31" target="cifpsuVYbJhnXqXT2xYJ-17">
          <mxGeometry relative="1" as="geometry">
            <Array as="points">
              <mxPoint x="260" y="883" />
              <mxPoint x="260" y="708" />
            </Array>
          </mxGeometry>
        </mxCell>
        <mxCell id="cifpsuVYbJhnXqXT2xYJ-31" value="Concluir Pagamento" style="whiteSpace=wrap;html=1;rounded=0;" vertex="1" parent="1">
          <mxGeometry x="280" y="852.5" width="120" height="60" as="geometry" />
        </mxCell>
        <mxCell id="cifpsuVYbJhnXqXT2xYJ-40" value="" style="edgeStyle=orthogonalEdgeStyle;rounded=0;orthogonalLoop=1;jettySize=auto;html=1;" edge="1" parent="1" source="cifpsuVYbJhnXqXT2xYJ-37" target="cifpsuVYbJhnXqXT2xYJ-39">
          <mxGeometry relative="1" as="geometry" />
        </mxCell>
        <mxCell id="cifpsuVYbJhnXqXT2xYJ-37" value="Entregar a Pizza" style="whiteSpace=wrap;html=1;rounded=0;" vertex="1" parent="1">
          <mxGeometry x="670" y="677.5" width="120" height="60" as="geometry" />
        </mxCell>
        <mxCell id="cifpsuVYbJhnXqXT2xYJ-42" value="" style="edgeStyle=orthogonalEdgeStyle;rounded=0;orthogonalLoop=1;jettySize=auto;html=1;" edge="1" parent="1" source="cifpsuVYbJhnXqXT2xYJ-39" target="cifpsuVYbJhnXqXT2xYJ-41">
          <mxGeometry relative="1" as="geometry" />
        </mxCell>
        <mxCell id="cifpsuVYbJhnXqXT2xYJ-39" value="Nota Fiscal" style="whiteSpace=wrap;html=1;rounded=0;" vertex="1" parent="1">
          <mxGeometry x="670" y="537.5" width="120" height="60" as="geometry" />
        </mxCell>
        <mxCell id="cifpsuVYbJhnXqXT2xYJ-46" value="" style="edgeStyle=orthogonalEdgeStyle;rounded=0;orthogonalLoop=1;jettySize=auto;html=1;" edge="1" parent="1" source="cifpsuVYbJhnXqXT2xYJ-41">
          <mxGeometry relative="1" as="geometry">
            <mxPoint x="730" y="287.5" as="targetPoint" />
          </mxGeometry>
        </mxCell>
        <mxCell id="cifpsuVYbJhnXqXT2xYJ-41" value="Feedback" style="whiteSpace=wrap;html=1;rounded=0;" vertex="1" parent="1">
          <mxGeometry x="670" y="397.5" width="120" height="60" as="geometry" />
        </mxCell>
        <mxCell id="cifpsuVYbJhnXqXT2xYJ-47" value="Fim" style="rounded=1;whiteSpace=wrap;html=1;" vertex="1" parent="1">
          <mxGeometry x="670" y="210" width="120" height="60" as="geometry" />
        </mxCell>
      </root>
    </mxGraphModel>
  </diagram>
</mxfile>
